<svg xmlns="http://www.w3.org/2000/svg" viewBox="0 0 622.48 179.49"><defs><style>.cls-1{fill:#fff;}</style></defs><g id="Layer_2" data-name="Layer 2"><g id="Layer_1-2" data-name="Layer 1"><path class="cls-1" d="M87.31,63.1a16.4,16.4,0,0,0,4.78,3.68,12.44,12.44,0,0,0,5.64,1.31,8.76,8.76,0,0,0,5.72-1.8,6,6,0,0,0,2.21-4.9,6.61,6.61,0,0,0-1.35-4.34,11.77,11.77,0,0,0-4-2.9q-2.65-1.26-6.49-2.73a49.89,49.89,0,0,1-4.7-2,23.37,23.37,0,0,1-5-3.26,16.51,16.51,0,0,1-3.92-4.91,14.54,14.54,0,0,1-1.55-7A14.37,14.37,0,0,1,81.1,25.8a16.11,16.11,0,0,1,6.78-5.48,23.25,23.25,0,0,1,9.6-1.92,22.36,22.36,0,0,1,9.44,1.84,21.34,21.34,0,0,1,6.62,4.66,23.79,23.79,0,0,1,4.13,5.84l-9.15,5.07a19,19,0,0,0-2.74-3.72,13.16,13.16,0,0,0-3.64-2.7,10.27,10.27,0,0,0-4.66-1A7.28,7.28,0,0,0,92.34,30a4.9,4.9,0,0,0-1.72,3.71A5.46,5.46,0,0,0,92,37.4a13.93,13.93,0,0,0,4.25,3,58.74,58.74,0,0,0,7.19,2.9,32.28,32.28,0,0,1,5.35,2.45,21.84,21.84,0,0,1,4.66,3.55,15.19,15.19,0,0,1,3.27,4.91,16.59,16.59,0,0,1,1.18,6.49,16.41,16.41,0,0,1-1.63,7.44,15.94,15.94,0,0,1-4.5,5.51,21,21,0,0,1-6.41,3.44,24.59,24.59,0,0,1-17.24-.82,25.11,25.11,0,0,1-7.89-5.44A27.22,27.22,0,0,1,75,63.43l8.34-5.89A29.78,29.78,0,0,0,87.31,63.1Z"/><path class="cls-1" d="M147.49,19.55v57.2H135.65V19.55Z"/><path class="cls-1" d="M179.28,19.55v57.2H168V19.55Zm-3.76,0h28.85v9.88H175.52Zm0,22h27.21v9.72H175.52Zm0,25.33h28.85v9.89H175.52Z"/><path class="cls-1" d="M235.75,19.55v57.2H224.06V19.55Zm-4.58,0h12.09a26.42,26.42,0,0,1,11.53,2.28,17.07,17.07,0,0,1,7.27,6.38,17.75,17.75,0,0,1,2.53,9.56,17.8,17.8,0,0,1-2.53,9.52,16.87,16.87,0,0,1-7.27,6.41A26.28,26.28,0,0,1,243.26,56H231.17V46.68h11.36a12.86,12.86,0,0,0,5.35-1,7.88,7.88,0,0,0,3.47-2.95,8.37,8.37,0,0,0,1.23-4.61,8.38,8.38,0,0,0-1.23-4.62,7.79,7.79,0,0,0-3.47-2.94,12.86,12.86,0,0,0-5.35-1H231.17Zm18.22,30.56L268,76.75H254.21L237.05,50.11Z"/><path class="cls-1" d="M297.2,57.79l.24,2.61-7.52,16.35H276.77l29-60.55,29,60.55H321.55l-7.36-15.86.17-2.94L305.78,38.1Zm-5-3.27h27.46l1.39,9.24H290.82Z"/><path class="cls-1" d="M12.3,145.1a16.27,16.27,0,0,0,4.78,3.68,12.44,12.44,0,0,0,5.64,1.31,8.76,8.76,0,0,0,5.72-1.8,6,6,0,0,0,2.2-4.9,6.66,6.66,0,0,0-1.34-4.34,11.77,11.77,0,0,0-4-2.9q-2.66-1.26-6.5-2.73a51,51,0,0,1-4.69-2,23.37,23.37,0,0,1-5-3.26,16.51,16.51,0,0,1-3.92-4.91,14.54,14.54,0,0,1-1.55-7,14.37,14.37,0,0,1,2.49-8.46,16.11,16.11,0,0,1,6.78-5.48,23.25,23.25,0,0,1,9.6-1.92,22.36,22.36,0,0,1,9.44,1.84,21.34,21.34,0,0,1,6.62,4.66,23.79,23.79,0,0,1,4.13,5.84l-9.16,5.07a18.56,18.56,0,0,0-2.73-3.72,13.31,13.31,0,0,0-3.64-2.7,10.3,10.3,0,0,0-4.66-1,7.31,7.31,0,0,0-5.15,1.6,4.92,4.92,0,0,0-1.71,3.71A5.46,5.46,0,0,0,17,119.4a13.81,13.81,0,0,0,4.25,3,58.09,58.09,0,0,0,7.19,2.9,32.65,32.65,0,0,1,5.35,2.45,21.84,21.84,0,0,1,4.66,3.55,15.19,15.19,0,0,1,3.27,4.91,16.62,16.62,0,0,1,1.18,6.49,16.41,16.41,0,0,1-1.63,7.44,15.94,15.94,0,0,1-4.5,5.51,21.08,21.08,0,0,1-6.41,3.44,23.48,23.48,0,0,1-7.48,1.18,23.94,23.94,0,0,1-9.76-2,25,25,0,0,1-7.89-5.44A27,27,0,0,1,0,145.43l8.34-5.89A29.33,29.33,0,0,0,12.3,145.1Z"/><path class="cls-1" d="M54.91,101.55h42.5v10.54H82v46.66H70.28V112.09H54.91Z"/><path class="cls-1" d="M123.47,101.55v37.67a11.6,11.6,0,0,0,2.58,7.88q2.57,3,7.64,3t7.64-3a11.64,11.64,0,0,0,2.57-7.88V101.55h11.69V140a22.59,22.59,0,0,1-1.64,8.91,17.79,17.79,0,0,1-4.61,6.46,20.38,20.38,0,0,1-7,4,27,27,0,0,1-8.66,1.35,27.26,27.26,0,0,1-8.75-1.35,19.87,19.87,0,0,1-6.94-4,18,18,0,0,1-4.58-6.46,22.59,22.59,0,0,1-1.63-8.91v-38.4Z"/><path class="cls-1" d="M187.62,101.55v57.2H175.69v-57.2Zm-4.41,57.2V148.12h11.52a24,24,0,0,0,7.11-1,15.91,15.91,0,0,0,5.88-3.22,15,15,0,0,0,4-5.6,23.83,23.83,0,0,0,0-16.26,15,15,0,0,0-4-5.6,15.93,15.93,0,0,0-5.88-3.23,24.35,24.35,0,0,0-7.11-1H183.21V101.55h11.93a33.62,33.62,0,0,1,15.73,3.51,25.65,25.65,0,0,1,10.5,9.93,29.52,29.52,0,0,1,3.76,15.16,29.52,29.52,0,0,1-3.76,15.16,25.69,25.69,0,0,1-10.5,9.92,33.5,33.5,0,0,1-15.73,3.52Z"/><path class="cls-1" d="M254.22,101.55v57.2H242.37v-57.2Z"/><path class="cls-1" d="M273.75,118.18a28.28,28.28,0,0,1,16-15.61,34.21,34.21,0,0,1,24,0,29,29,0,0,1,9.61,6.17,27.77,27.77,0,0,1,6.37,9.44,31,31,0,0,1,2.25,12,31.41,31.41,0,0,1-2.25,12,29.14,29.14,0,0,1-6.29,9.6,28.21,28.21,0,0,1-9.56,6.33,33.85,33.85,0,0,1-24.27,0,28.48,28.48,0,0,1-9.6-6.33,28.11,28.11,0,0,1-6.3-9.6,32,32,0,0,1-2.2-12A30.44,30.44,0,0,1,273.75,118.18Zm12.33,21.69a18.22,18.22,0,0,0,24.93,6.7,17,17,0,0,0,6.25-6.7,20.44,20.44,0,0,0,2.25-9.72,20.85,20.85,0,0,0-2.21-9.73,16.79,16.79,0,0,0-6.21-6.7,17.68,17.68,0,0,0-9.4-2.45,17.06,17.06,0,0,0-15.61,9.15,21.88,21.88,0,0,0,0,19.45Z"/><path class="cls-1" d="M417.37,43.68h3.05L410,67.26,399.57,43.68h3.05L410,61.07Z"/><path class="cls-1" d="M429.08,43.68V66.14h-2.73V43.68Z"/><path class="cls-1" d="M440.15,43.68V66.14h-2.73V43.68Zm-1.22,22.46V63.41h5.23a9.85,9.85,0,0,0,3.46-.59,7.66,7.66,0,0,0,2.7-1.7,7.56,7.56,0,0,0,1.73-2.68,10.52,10.52,0,0,0,0-7.06,7.56,7.56,0,0,0-1.73-2.68,7.81,7.81,0,0,0-2.7-1.7,9.85,9.85,0,0,0-3.46-.59h-5.23V43.68h5.23a11.72,11.72,0,0,1,5.8,1.41,10.36,10.36,0,0,1,4,3.93,12.69,12.69,0,0,1,0,11.78,10.23,10.23,0,0,1-4,3.93,11.72,11.72,0,0,1-5.8,1.41Z"/><path class="cls-1" d="M465.17,43.68V66.14h-2.73V43.68Zm-1.22,0h11.32v2.57H464Zm0,9h10.68v2.56H464Zm0,10.9h11.32v2.57H464Z"/><path class="cls-1" d="M482.86,50.34a11.05,11.05,0,0,1,2.39-3.66,11.33,11.33,0,0,1,3.62-2.44,12.13,12.13,0,0,1,9.07,0,11.39,11.39,0,0,1,3.61,2.44,11.21,11.21,0,0,1,2.39,3.66,12.68,12.68,0,0,1,0,9.13,11,11,0,0,1-6,6.11,12.13,12.13,0,0,1-9.07,0,11.17,11.17,0,0,1-3.62-2.44,11,11,0,0,1-2.39-3.67,12.68,12.68,0,0,1,0-9.13ZM486,59.43a8.43,8.43,0,0,0,14.79,0,9.76,9.76,0,0,0,0-9,8.45,8.45,0,0,0-14.79,0,9.84,9.84,0,0,0,0,9Z"/><path class="cls-1" d="M404.7,79.68v22.46H402V79.68Zm-1.22,0h10v2.57h-10Zm0,9h9.72v2.56h-9.72Z"/><path class="cls-1" d="M424,79.68v22.46h-2.73V79.68Z"/><path class="cls-1" d="M435,79.68V99.57h8.82v2.57H432.29V79.68Z"/><path class="cls-1" d="M451.38,102.14h-2.73l2.73-23.58,9,16.26,9-16.26,2.73,23.58h-2.73L467.67,87l-7.31,13.08L453,87Z"/><path class="cls-1" d="M404.7,115.68v22.46H402V115.68Zm-1.22,0h4.59a9.07,9.07,0,0,1,3.9.82,6.65,6.65,0,0,1,2.72,2.33,6.81,6.81,0,0,1,0,7.17,6.67,6.67,0,0,1-2.72,2.34,9.07,9.07,0,0,1-3.9.82h-4.59v-2.57h4.59a5.62,5.62,0,0,0,3.55-1.06,4.26,4.26,0,0,0,0-6.24,5.73,5.73,0,0,0-3.55-1h-4.59Z"/><path class="cls-1" d="M425.49,115.68v22.46h-2.73V115.68Zm-1.22,0h4.59a9,9,0,0,1,3.89.82,6.61,6.61,0,0,1,2.73,2.33,6.87,6.87,0,0,1,0,7.17,6.64,6.64,0,0,1-2.73,2.34,9,9,0,0,1-3.89.82h-4.59v-2.41h4.59a6,6,0,0,0,2.55-.51,4.1,4.1,0,0,0,1.73-1.48,4.21,4.21,0,0,0-1.73-6.16,6,6,0,0,0-2.55-.51h-4.59Zm5.55,11.39,8,11.07h-3.37l-7.7-11.07Z"/><path class="cls-1" d="M443.5,122.34a11.05,11.05,0,0,1,2.39-3.66,11.25,11.25,0,0,1,3.62-2.43,12,12,0,0,1,9.07,0,11,11,0,0,1,6,6.09,12.68,12.68,0,0,1,0,9.13,11,11,0,0,1-6,6.11,12.13,12.13,0,0,1-9.07,0,11.28,11.28,0,0,1-3.62-2.44,11,11,0,0,1-2.39-3.67,12.68,12.68,0,0,1,0-9.13Zm3.14,9.09a8.43,8.43,0,0,0,14.79,0,9.76,9.76,0,0,0,0-9,8.45,8.45,0,0,0-14.79,0,9.84,9.84,0,0,0,0,9Z"/><path class="cls-1" d="M475.21,115.68v22.46h-2.73V115.68ZM474,138.14v-2.73h5.23a9.59,9.59,0,0,0,3.46-.59,7.66,7.66,0,0,0,2.7-1.7,7.56,7.56,0,0,0,1.73-2.68,10.52,10.52,0,0,0,0-7.06,7.65,7.65,0,0,0-1.73-2.68,7.81,7.81,0,0,0-2.7-1.7,9.81,9.81,0,0,0-3.46-.59H474v-2.73h5.23a11.76,11.76,0,0,1,5.81,1.41,10.41,10.41,0,0,1,4,3.93,12.69,12.69,0,0,1,0,11.78,10.27,10.27,0,0,1-4,3.93,11.76,11.76,0,0,1-5.81,1.41Z"/><path class="cls-1" d="M500.07,115.68v15.08a5.42,5.42,0,0,0,1.25,3.72,5.44,5.44,0,0,0,7.31,0,5.37,5.37,0,0,0,1.26-3.72V115.68h2.72v15.08a8.55,8.55,0,0,1-.53,3.08,6.8,6.8,0,0,1-1.54,2.44,7.1,7.1,0,0,1-2.42,1.6,8.82,8.82,0,0,1-6.29,0,7.2,7.2,0,0,1-2.42-1.6,7.09,7.09,0,0,1-1.54-2.44,8.78,8.78,0,0,1-.53-3.08V115.68Z"/><path class="cls-1" d="M523.57,131.5a8.69,8.69,0,0,0,3.06,3.11,7.89,7.89,0,0,0,4.11,1.12,10,10,0,0,0,2.93-.41,8.64,8.64,0,0,0,2.42-1.18A8.41,8.41,0,0,0,538,132.4V136a9.84,9.84,0,0,1-3.08,1.86,12.14,12.14,0,0,1-4.14.61,11.21,11.21,0,0,1-4.38-.85,11,11,0,0,1-6-6.08,12.7,12.7,0,0,1,0-9.24,11,11,0,0,1,6-6.08,11.4,11.4,0,0,1,4.38-.85,12.39,12.39,0,0,1,4.14.61,9.84,9.84,0,0,1,3.08,1.86v3.6a8.22,8.22,0,0,0-1.87-1.75,8.36,8.36,0,0,0-2.42-1.17,9.69,9.69,0,0,0-2.93-.42,7.89,7.89,0,0,0-4.11,1.12,8.66,8.66,0,0,0-3.06,3.1,9.61,9.61,0,0,0,0,9.19Z"/><path class="cls-1" d="M542.77,115.68H557v2.57h-5.77v19.89h-2.73V118.25h-5.77Z"/><path class="cls-1" d="M565.86,115.68v22.46h-2.72V115.68Z"/><path class="cls-1" d="M573.77,122.34a11,11,0,0,1,6-6.09,12,12,0,0,1,9.07,0,11,11,0,0,1,6,6.09,12.68,12.68,0,0,1,0,9.13,11,11,0,0,1-6,6.11,12.13,12.13,0,0,1-9.07,0,11.17,11.17,0,0,1-3.62-2.44,11,11,0,0,1-2.39-3.67,12.68,12.68,0,0,1,0-9.13Zm3.14,9.09a8.43,8.43,0,0,0,14.79,0,9.76,9.76,0,0,0,0-9,8.45,8.45,0,0,0-14.79,0,9.84,9.84,0,0,0,0,9Z"/><path class="cls-1" d="M622.48,115.68v23.58l-17-17.83v16.71h-2.73V114.56l17,17.84V115.68Z"/><rect class="cls-1" x="361.84" width="11.23" height="179.49"/></g></g></svg>